<svg width="325.586" height="77.051" viewBox="2.7617187422208147 -4.464949198739461 331.58593754595285 83.05099639323068" xmlns="http://www.w3.org/2000/svg"><g id="svgGroup" stroke-linecap="round" fill-rule="evenodd" font-size="9pt" stroke="#eaeaea" stroke-width="0.25mm" fill="#004fff" style="stroke:#eaeaea;stroke-width:0.25mm;fill:#004fff"><path d="M 104.688 1.953 L 137.402 56.348 L 137.402 1.953 A 132.599 132.599 0 0 1 142.451 2.222 A 109.68 109.68 0 0 1 145.288 2.466 A 216.207 216.207 0 0 1 148.35 2.791 Q 149.748 2.95 150.993 3.113 A 123.332 123.332 0 0 1 151.807 3.223 A 305.078 305.078 0 0 1 154.968 3.711 A 247.111 247.111 0 0 1 157.91 4.199 L 157.91 16.602 Q 154.263 15.508 149.595 14.669 A 106.423 106.423 0 0 0 148.926 14.551 L 148.926 63.77 A 60.937 60.937 0 0 0 151.761 63.284 A 48.358 48.358 0 0 0 153.784 62.842 A 77.544 77.544 0 0 0 155.927 62.293 A 63.113 63.113 0 0 0 157.91 61.719 L 157.91 73.242 A 249.549 249.549 0 0 1 154.553 73.779 A 183.959 183.959 0 0 1 151.514 74.219 A 168.804 168.804 0 0 1 148.737 74.573 A 132.863 132.863 0 0 1 146.167 74.854 A 168.52 168.52 0 0 1 143.781 75.073 A 136.555 136.555 0 0 1 141.553 75.244 A 221.113 221.113 0 0 1 138.412 75.437 A 198.419 198.419 0 0 1 137.402 75.488 L 104.688 21.192 L 104.688 75.488 A 209.528 209.528 0 0 1 101.602 75.314 A 233.136 233.136 0 0 1 100.537 75.244 A 132.546 132.546 0 0 1 98.315 75.073 A 161.18 161.18 0 0 1 95.947 74.854 Q 93.506 74.609 90.625 74.219 A 171.425 171.425 0 0 1 87.598 73.779 A 227.879 227.879 0 0 1 84.277 73.242 L 84.277 60.84 A 44.091 44.091 0 0 0 87.234 61.678 Q 88.862 62.082 90.744 62.444 A 92.084 92.084 0 0 0 93.262 62.891 L 93.262 13.574 A 79.903 79.903 0 0 0 90.16 14.162 A 65.879 65.879 0 0 0 88.428 14.551 A 120.19 120.19 0 0 0 86.267 15.088 A 95.334 95.334 0 0 0 84.277 15.625 L 84.277 4.199 A 187.81 187.81 0 0 1 87.146 3.711 A 243.969 243.969 0 0 1 90.283 3.223 A 123.166 123.166 0 0 1 92.501 2.933 Q 94.458 2.695 96.777 2.466 A 117.017 117.017 0 0 1 101.607 2.094 A 139.848 139.848 0 0 1 104.687 1.953 Z M 275.684 1.758 L 290.332 27.637 L 304.883 1.758 A 163.89 163.89 0 0 1 309.941 2.069 A 136.805 136.805 0 0 1 312.793 2.319 A 226.407 226.407 0 0 1 315.881 2.645 Q 317.294 2.804 318.558 2.967 A 132.085 132.085 0 0 1 319.385 3.076 A 191.806 191.806 0 0 1 322.595 3.528 A 156.319 156.319 0 0 1 325.586 4.004 L 325.586 16.406 A 16.42 16.42 0 0 0 324.911 16.188 Q 324.098 15.942 322.974 15.674 A 107.899 107.899 0 0 0 321.246 15.277 A 144.556 144.556 0 0 0 319.336 14.868 A 145.486 145.486 0 0 0 316.223 14.259 A 165.749 165.749 0 0 0 315.137 14.063 Q 312.939 13.672 310.84 13.281 L 296.484 38.77 L 310.84 64.258 A 172.432 172.432 0 0 0 315.137 63.501 A 150.834 150.834 0 0 0 318.323 62.865 A 132.221 132.221 0 0 0 319.336 62.647 A 237.346 237.346 0 0 0 321.246 62.219 A 176.508 176.508 0 0 0 322.974 61.817 A 83.557 83.557 0 0 0 323.75 61.627 Q 324.854 61.353 325.586 61.133 L 325.586 73.535 A 156.319 156.319 0 0 1 322.595 74.011 A 191.806 191.806 0 0 1 319.385 74.463 A 148.923 148.923 0 0 1 316.705 74.8 Q 315.337 74.96 313.82 75.116 A 250.747 250.747 0 0 1 312.793 75.22 A 143.224 143.224 0 0 1 307.964 75.611 A 171.267 171.267 0 0 1 304.883 75.781 L 290.332 49.902 L 275.684 75.781 Q 271.484 75.586 267.749 75.22 Q 264.539 74.905 261.996 74.572 A 118.169 118.169 0 0 1 261.182 74.463 Q 257.861 74.024 255.078 73.535 L 255.078 61.133 A 16.324 16.324 0 0 0 255.563 61.286 Q 256.36 61.524 257.568 61.817 A 146.367 146.367 0 0 0 259.277 62.219 A 201.031 201.031 0 0 0 261.182 62.647 Q 263.184 63.086 265.405 63.501 A 189.416 189.416 0 0 0 269.464 64.215 A 172.892 172.892 0 0 0 269.727 64.258 L 283.984 38.77 L 269.727 13.281 A 443.333 443.333 0 0 1 265.475 14.05 A 484.113 484.113 0 0 1 265.405 14.063 A 152.591 152.591 0 0 0 263.239 14.459 A 131.675 131.675 0 0 0 261.182 14.868 A 130.41 130.41 0 0 0 259.277 15.277 A 95.299 95.299 0 0 0 257.568 15.674 Q 256.24 15.996 255.41 16.285 A 9.772 9.772 0 0 0 255.078 16.406 L 255.078 4.004 Q 257.861 3.516 261.182 3.076 A 134.865 134.865 0 0 1 263.833 2.739 Q 265.194 2.579 266.716 2.423 A 238.145 238.145 0 0 1 267.749 2.319 A 145.948 145.948 0 0 1 272.599 1.928 A 172.854 172.854 0 0 1 275.684 1.758 Z M 20.703 1.465 L 20.703 29.492 Q 22.607 29.883 24.561 30.029 A 52.868 52.868 0 0 0 28.516 30.176 A 31.078 31.078 0 0 0 32.845 29.892 Q 36.435 29.386 39.063 27.979 A 16.501 16.501 0 0 0 45.508 21.924 A 23.711 23.711 0 0 0 47.838 16.706 A 30.807 30.807 0 0 0 48.779 12.817 A 66.637 66.637 0 0 0 49.615 5.922 A 81.754 81.754 0 0 0 49.805 1.465 A 163.89 163.89 0 0 1 54.863 1.776 A 136.805 136.805 0 0 1 57.715 2.026 A 226.407 226.407 0 0 1 60.803 2.352 Q 62.215 2.511 63.48 2.674 A 132.085 132.085 0 0 1 64.307 2.783 A 191.806 191.806 0 0 1 67.517 3.235 A 156.319 156.319 0 0 1 70.508 3.711 L 70.508 16.113 Q 69.775 15.869 68.628 15.576 A 88.641 88.641 0 0 0 67.419 15.277 A 117.231 117.231 0 0 0 66.089 14.966 Q 64.697 14.649 63.11 14.331 A 586.703 586.703 0 0 1 59.863 13.672 A 60.276 60.276 0 0 1 58.862 19.849 A 32.9 32.9 0 0 1 57.031 25.684 A 22.945 22.945 0 0 1 54.077 30.786 Q 52.295 33.106 49.707 34.766 A 18.258 18.258 0 0 1 55.762 38.086 A 24.098 24.098 0 0 1 60.327 43.14 A 30.833 30.833 0 0 1 63.55 49.365 A 49.236 49.236 0 0 1 65.625 56.201 A 57.046 57.046 0 0 1 66.748 63.11 A 71.939 71.939 0 0 1 67.024 66.836 A 57.442 57.442 0 0 1 67.09 69.531 A 65.048 65.048 0 0 1 67.049 71.88 A 57.87 57.87 0 0 1 67.017 72.632 A 47.424 47.424 0 0 1 66.925 74.066 A 37.634 37.634 0 0 1 66.797 75.391 L 55.273 75.391 A 37.707 37.707 0 0 0 55.544 72.823 A 33.425 33.425 0 0 0 55.591 71.997 Q 55.664 70.361 55.664 68.75 A 45.938 45.938 0 0 0 55.286 62.72 A 34.929 34.929 0 0 0 54.15 57.324 A 29.95 29.95 0 0 0 52.332 52.631 A 23.112 23.112 0 0 0 49.902 48.706 A 18.94 18.94 0 0 0 44.654 43.981 A 18.102 18.102 0 0 0 43.384 43.286 A 18.227 18.227 0 0 0 35.908 41.423 A 21.44 21.44 0 0 0 35.059 41.406 Q 31.982 41.406 29.834 41.553 Q 27.686 41.699 26.074 41.968 A 34.538 34.538 0 0 0 24.644 42.236 Q 23.975 42.377 23.385 42.533 A 20.407 20.407 0 0 0 23.218 42.578 A 530.154 530.154 0 0 1 20.703 43.262 L 20.703 75.391 L 8.691 75.391 L 8.691 14.063 A 1044.268 1044.268 0 0 0 6.012 14.63 A 821.378 821.378 0 0 0 3.54 15.161 A 53.484 53.484 0 0 0 2.431 15.413 Q 1.25 15.695 0.459 15.953 A 11.289 11.289 0 0 0 0 16.113 L 0 3.711 Q 2.783 3.223 6.152 2.783 Q 8.586 2.448 11.705 2.13 A 237.187 237.187 0 0 1 12.744 2.026 A 150.232 150.232 0 0 1 18.122 1.604 A 176.171 176.171 0 0 1 20.703 1.465 Z M 244.727 17.578 L 244.727 59.473 Q 244.727 62.061 243.408 64.38 A 14.667 14.667 0 0 1 241.174 67.331 A 18.214 18.214 0 0 1 239.746 68.652 Q 237.402 70.606 234.082 72.144 A 44.036 44.036 0 0 1 229.43 73.973 A 53.313 53.313 0 0 1 226.758 74.78 A 59.205 59.205 0 0 1 220.975 76.049 A 69.744 69.744 0 0 1 218.164 76.465 A 74.714 74.714 0 0 1 208.768 77.051 A 81.695 81.695 0 0 1 208.691 77.051 A 74.592 74.592 0 0 1 199.815 76.536 A 68.506 68.506 0 0 1 199.243 76.465 A 64.798 64.798 0 0 1 193.243 75.417 A 55.074 55.074 0 0 1 190.698 74.78 A 50.644 50.644 0 0 1 185.981 73.235 A 42.278 42.278 0 0 1 183.398 72.144 A 29.977 29.977 0 0 1 180.316 70.502 A 22.98 22.98 0 0 1 177.71 68.652 A 16.866 16.866 0 0 1 175.497 66.474 A 13.543 13.543 0 0 1 174.048 64.38 A 9.923 9.923 0 0 1 172.754 59.473 L 172.754 17.578 A 9.923 9.923 0 0 1 174.048 12.671 Q 175.342 10.352 177.71 8.399 A 23.35 23.35 0 0 1 180.675 6.333 A 30.499 30.499 0 0 1 183.398 4.907 A 44.568 44.568 0 0 1 188.158 3.039 A 53.508 53.508 0 0 1 190.698 2.271 A 58.499 58.499 0 0 1 196.447 1.002 A 68.959 68.959 0 0 1 199.243 0.586 A 73.77 73.77 0 0 1 208.082 0.002 A 80.888 80.888 0 0 1 208.691 0 A 74.808 74.808 0 0 1 218.092 0.577 A 69.56 69.56 0 0 1 218.164 0.586 A 65.554 65.554 0 0 1 224.198 1.634 A 55.752 55.752 0 0 1 226.758 2.271 Q 230.762 3.369 234.082 4.907 A 29.449 29.449 0 0 1 237.158 6.549 A 22.365 22.365 0 0 1 239.746 8.399 A 17.208 17.208 0 0 1 242.058 10.712 A 14.078 14.078 0 0 1 243.408 12.671 Q 244.727 14.99 244.727 17.578 Z M 231.934 55.762 L 231.934 21.289 A 5.583 5.583 0 0 0 231.119 18.415 A 7.75 7.75 0 0 0 230.322 17.31 Q 228.945 15.703 226.551 14.417 A 20.73 20.73 0 0 0 225.708 13.989 A 24.454 24.454 0 0 0 222.833 12.841 Q 221.327 12.342 219.591 11.946 A 43.89 43.89 0 0 0 218.408 11.694 Q 214.111 10.84 208.691 10.84 Q 203.467 10.84 199.219 11.646 Q 194.971 12.451 191.919 13.867 A 18.314 18.314 0 0 0 189.747 15.048 Q 188.219 16.027 187.207 17.188 A 7.258 7.258 0 0 0 186.102 18.847 A 5.645 5.645 0 0 0 185.547 21.289 L 185.547 55.762 A 5.642 5.642 0 0 0 186.405 58.724 A 7.83 7.83 0 0 0 187.207 59.815 A 11.068 11.068 0 0 0 189.065 61.489 Q 189.987 62.158 191.131 62.749 A 20.668 20.668 0 0 0 191.919 63.135 Q 194.971 64.551 199.219 65.381 A 43.403 43.403 0 0 0 204.008 66.029 A 57.625 57.625 0 0 0 208.691 66.211 Q 214.111 66.211 218.408 65.357 Q 222.705 64.502 225.708 63.037 A 18.962 18.962 0 0 0 227.765 61.88 Q 228.818 61.192 229.621 60.429 A 9.965 9.965 0 0 0 230.322 59.692 Q 231.934 57.813 231.934 55.762 Z" vector-effect="non-scaling-stroke"/></g></svg>
